<?xml version="1.0" encoding="utf-8"?>
<!-- Generator: Adobe Illustrator 25.2.1, SVG Export Plug-In . SVG Version: 6.00 Build 0)  -->
<svg version="1.1" id="Layer_1" xmlns="http://www.w3.org/2000/svg" xmlns:xlink="http://www.w3.org/1999/xlink" x="0px" y="0px"
	 viewBox="0 0 180 220" style="enable-background:new 0 0 180 220;" xml:space="preserve">
<style type="text/css">
	.st0{fill:#07A84C;}
</style>
<path id="XMLID_29_" class="st0" d="M25.6,100.6L75,51.2V205c0,8.3,6.7,15,15,15s15-6.7,15-15V51.2l49.4,49.4
	c2.9,2.9,6.8,4.4,10.6,4.4c3.8,0,7.7-1.5,10.6-4.4c5.9-5.9,5.9-15.4,0-21.2l-75-75c-5.9-5.9-15.4-5.9-21.2,0l-75,75
	c-5.9,5.9-5.9,15.4,0,21.2C10.3,106.5,19.7,106.5,25.6,100.6z"/>
</svg>
