<svg id="Ebene_1" data-name="Ebene 1" xmlns="http://www.w3.org/2000/svg" viewBox="0 0 1093.11 615.16"><defs><style>.cls-1{fill:#ffec00;}.cls-2{fill:#ffce00;}.cls-3{fill:#fc0;}.cls-4{fill:#ffe000;}.cls-5{fill:#ffb000;}.cls-6{fill:#ffc200;}.cls-7{fill:#ffb600;}.cls-8{fill:none;}</style></defs><polygon class="cls-1" points="0.02 61.42 0.15 28.44 71.62 37.07 39.52 134.38 0.02 61.42"/><polygon class="cls-2" points="9.35 252.11 39.52 134.38 0.08 142.23 0.15 253.04 9.35 252.11"/><polygon class="cls-3" points="72.6 367.9 124.17 249.19 9.35 252.11 72.6 367.9"/><polygon class="cls-4" points="39.52 134.38 124.17 249.19 9.35 252.11 39.52 134.38"/><polygon class="cls-5" points="131.95 140.21 124.17 249.19 39.52 134.38 131.95 140.21"/><polygon class="cls-4" points="189.36 293.95 124.17 249.19 72.6 367.9 189.36 293.95"/><polygon class="cls-1" points="226.34 434.07 189.36 293.95 72.6 367.9 226.34 434.07"/><polygon class="cls-6" points="367.42 360.12 189.36 293.95 226.34 434.07 367.42 360.12"/><polygon class="cls-2" points="343.1 256.01 367.42 360.12 189.36 293.95 343.1 256.01"/><polygon class="cls-4" points="222.44 127.56 343.1 256.01 189.36 293.95 222.44 127.56"/><polygon class="cls-3" points="124.17 249.19 222.44 127.56 189.36 293.95 124.17 249.19"/><polygon class="cls-4" points="131.95 140.21 222.44 127.56 124.17 249.19 131.95 140.21"/><polygon class="cls-5" points="326.56 133.4 343.1 256.01 222.44 127.56 326.56 133.4"/><polygon class="cls-1" points="171.84 26.37 326.56 133.4 222.44 127.56 171.84 26.37"/><polygon class="cls-3" points="131.95 140.21 171.84 26.37 222.44 127.56 131.95 140.21"/><polygon class="cls-1" points="71.62 37.07 171.84 26.37 131.95 140.21 71.62 37.07"/><polygon class="cls-1" points="434.56 165.51 326.56 133.4 343.1 256.01 434.56 165.51"/><polygon class="cls-3" points="399.54 23.45 434.56 165.51 326.56 133.4 399.54 23.45"/><polygon class="cls-1" points="368.45 0.25 326.56 133.4 399.54 23.45 368.45 0.25"/><polygon class="cls-4" points="489.12 0.16 399.54 23.45 368.45 0.25 489.12 0.16"/><polygon class="cls-6" points="263.33 0.16 368.45 0.25 326.56 133.4 263.33 0.16"/><polygon class="cls-7" points="210.77 0.1 263.33 0.16 326.56 133.4 171.84 26.37 210.77 0.1"/><polygon class="cls-4" points="173.5 0.21 210.77 0.1 171.84 26.37 173.5 0.21"/><polygon class="cls-5" points="122.53 0.21 171.84 26.37 173.5 0.21 122.53 0.21"/><polygon class="cls-2" points="69.73 0.35 71.62 37.07 171.84 26.37 122.53 0.21 69.73 0.35"/><polygon class="cls-4" points="0.22 0.36 0.15 28.44 71.62 37.07 69.73 0.35 0.22 0.36"/><polygon class="cls-5" points="0.08 142.23 0.02 61.42 39.52 134.38 0.08 142.23"/><polygon class="cls-4" points="16.16 367.9 72.6 367.9 9.35 252.11 16.16 367.9"/><polygon class="cls-1" points="0.15 347.86 16.16 367.9 9.35 252.11 0.15 253.04 0.15 347.86"/><polygon class="cls-6" points="26.86 525.53 72.6 367.9 16.16 367.9 26.86 525.53"/><polygon class="cls-5" points="0.08 378.45 16.16 367.9 0.15 347.86 0.08 378.45"/><polygon class="cls-3" points="0.14 493.04 26.86 525.53 16.16 367.9 0.08 378.45 0.14 493.04"/><polygon class="cls-1" points="0.28 563.49 26.86 525.53 0.14 493.04 0.28 563.49"/><polygon class="cls-5" points="0.28 593.13 63.53 615.02 93.64 615.14 26.86 525.53 0.28 563.49 0.28 593.13"/><polygon class="cls-6" points="0 615.16 63.53 615.02 0.28 593.13 0 615.16"/><polygon class="cls-2" points="131.95 543.04 26.86 525.53 93.64 615.14 104.55 615.01 131.95 543.04"/><polygon class="cls-4" points="209.79 586.83 131.95 543.04 104.55 615.01 135.84 615.05 209.79 586.83"/><polygon class="cls-8" points="208.48 615.03 209.79 586.83 135.84 615.05 208.48 615.03"/><polygon class="cls-8" points="279.45 615.03 209.79 586.83 208.48 615.03 279.45 615.03"/><polygon class="cls-8" points="295.42 551.8 140.71 468.12 209.79 586.83 295.42 551.8"/><polygon class="cls-4" points="226.34 434.07 295.42 551.8 140.71 468.12 226.34 434.07"/><polygon class="cls-6" points="345.04 424.33 295.42 551.8 226.34 434.07 345.04 424.33"/><polygon class="cls-1" points="367.42 360.12 345.04 424.33 226.34 434.07 367.42 360.12"/><polygon class="cls-5" points="470.57 416.55 345.04 424.33 367.42 360.12 470.57 416.55"/><polygon class="cls-1" points="26.86 525.53 140.71 468.12 131.95 543.04 26.86 525.53"/><polygon class="cls-4" points="72.6 367.9 140.71 468.12 26.86 525.53 72.6 367.9"/><polygon class="cls-5" points="72.6 367.9 226.34 434.07 140.71 468.12 72.6 367.9"/><polygon class="cls-5" points="209.79 586.83 140.71 468.12 131.95 543.04 209.79 586.83"/><polygon class="cls-2" points="295.42 551.8 140.71 468.12 209.79 586.83 295.42 551.8"/><polygon class="cls-6" points="476.39 614.84 295.42 551.8 338.58 614.93 476.39 614.84"/><polygon class="cls-2" points="131.95 140.21 71.62 37.07 39.52 134.38 131.95 140.21"/><polygon class="cls-5" points="209.79 586.83 279.45 615.03 338.58 614.93 295.42 551.8 209.79 586.83"/><polygon class="cls-4" points="208.48 615.03 279.45 615.03 209.79 586.83 208.48 615.03"/><polygon class="cls-3" points="135.84 615.05 209.79 586.83 208.48 615.03 135.84 615.05"/><polygon class="cls-4" points="295.42 551.8 413.47 485.19 345.04 424.33 295.42 551.8"/><polygon class="cls-3" points="470.57 416.55 413.47 485.19 345.04 424.33 470.57 416.55"/><polygon class="cls-1" points="479.52 614.84 413.47 485.19 295.42 551.8 476.39 614.84 479.52 614.84"/><polygon class="cls-5" points="484.65 614.93 589.93 485.19 413.47 485.19 479.52 614.84 484.65 614.93"/><polygon class="cls-4" points="470.57 416.55 589.93 485.19 413.47 485.19 470.57 416.55"/><polygon class="cls-3" points="669.84 615.03 589.93 485.19 484.65 614.93 669.84 615.03"/><polygon class="cls-6" points="655.11 451.01 669.84 615.03 589.93 485.19 655.11 451.01"/><polygon class="cls-7" points="597.08 323.84 655.11 451.01 589.93 485.19 597.08 323.84"/><polygon class="cls-4" points="470.57 416.55 589.93 485.19 413.47 485.19 470.57 416.55"/><polygon class="cls-2" points="597.08 323.84 589.93 485.19 470.57 416.55 597.08 323.84"/><polygon class="cls-5" points="456.21 293.81 367.42 360.12 343.1 256.01 456.21 293.81"/><polygon class="cls-4" points="470.57 416.55 456.21 293.81 367.42 360.12 470.57 416.55"/><polygon class="cls-5" points="597.08 323.84 456.21 293.81 470.57 416.55 597.08 323.84"/><polygon class="cls-2" points="550.74 182.27 456.21 293.81 343.1 256.01 550.74 182.27"/><polygon class="cls-4" points="434.56 165.51 550.74 182.27 343.1 256.01 434.56 165.51"/><polygon class="cls-2" points="502.45 127.18 550.74 182.27 434.56 165.51 502.45 127.18"/><polygon class="cls-4" points="399.54 23.45 502.45 127.18 434.56 165.51 399.54 23.45"/><polygon class="cls-3" points="535.78 82.97 502.45 127.18 399.54 23.45 535.78 82.97"/><polygon class="cls-5" points="534.98 0.16 535.78 82.97 399.54 23.45 489.12 0.16 534.98 0.16"/><polygon class="cls-6" points="597.67 73.45 535.78 82.97 534.98 0.16 540.99 0.16 597.67 73.45"/><polygon class="cls-5" points="550.74 182.27 535.78 82.97 502.45 127.18 550.74 182.27"/><polygon class="cls-4" points="597.67 73.45 550.74 182.27 535.78 82.97 597.67 73.45"/><polygon class="cls-2" points="604.47 0 597.67 73.45 540.99 0.16 604.47 0"/><polygon class="cls-6" points="550.74 182.27 683.37 158.46 597.67 73.45 550.74 182.27"/><polygon class="cls-1" points="597.08 323.84 550.74 182.27 456.21 293.81 597.08 323.84"/><polygon class="cls-5" points="655.73 250.21 550.74 182.27 597.08 323.84 655.73 250.21"/><polygon class="cls-6" points="733.92 338.1 655.73 250.21 597.08 323.84 733.92 338.1"/><polygon class="cls-4" points="655.11 451.01 733.92 338.1 597.08 323.84 655.11 451.01"/><polygon class="cls-1" points="669.84 615.03 655.11 451.01 746.05 507.23 677.38 614.97 669.84 615.03"/><polygon class="cls-4" points="753.4 615.03 746.05 507.23 677.38 614.97 753.4 615.03"/><polygon class="cls-5" points="788.48 534.5 753.4 615.03 746.05 507.23 788.48 534.5"/><polygon class="cls-3" points="825.46 449.64 655.11 451.01 746.05 507.23 825.46 449.64"/><polygon class="cls-5" points="733.92 338.1 825.46 449.64 655.11 451.01 733.92 338.1"/><polygon class="cls-4" points="788.48 534.5 825.46 449.64 746.05 507.23 788.48 534.5"/><polygon class="cls-2" points="957 508.44 788.48 534.5 753.4 615.03 765.61 614.93 957 508.44"/><polygon class="cls-4" points="961.91 615.03 957 508.44 765.61 614.93 961.91 615.03"/><polygon class="cls-6" points="1015.8 514.5 957 508.44 961.91 615.03 1015.8 514.5"/><polygon class="cls-1" points="1093.11 615.03 1015.8 514.5 961.91 615.03 1093.11 615.03"/><polygon class="cls-4" points="1092.93 510.82 1015.8 514.5 1093.11 615.03 1092.93 510.82"/><polygon class="cls-3" points="1092.93 397.79 1015.8 514.5 1092.93 510.82 1092.93 397.79"/><polygon class="cls-1" points="957 508.44 825.46 449.64 788.48 534.5 957 508.44"/><polygon class="cls-4" points="975.48 366.61 825.46 449.64 859.36 357.64 975.48 366.61"/><polygon class="cls-6" points="957 508.44 975.48 366.61 825.46 449.64 957 508.44"/><polygon class="cls-4" points="1015.8 514.5 975.48 366.61 957 508.44 1015.8 514.5"/><polygon class="cls-5" points="1092.93 347.11 975.48 366.61 1015.8 514.5 1092.93 397.79 1092.93 347.11"/><polygon class="cls-4" points="683.37 158.46 655.73 250.21 550.74 182.27 683.37 158.46"/><polygon class="cls-4" points="755.64 31.5 683.37 158.46 597.67 73.45 755.64 31.5"/><polygon class="cls-5" points="604.47 0 639.44 0.16 597.67 73.45 604.47 0"/><polygon class="cls-2" points="721.18 0.1 755.64 31.5 597.67 73.45 639.44 0.16 721.18 0.1"/><polygon class="cls-6" points="765.52 0.03 755.64 31.5 721.18 0.1 765.52 0.03"/><polygon class="cls-2" points="877.65 0.03 908.61 21.05 755.64 31.5 765.52 0.03 877.65 0.03"/><polygon class="cls-1" points="904.15 0.03 908.61 21.05 877.65 0.03 904.15 0.03"/><polygon class="cls-2" points="955.15 0.11 908.61 21.05 904.15 0.03 955.15 0.11"/><polygon class="cls-5" points="1039.21 0.16 1041.68 94.28 908.61 21.05 955.15 0.11 1039.21 0.16"/><polygon class="cls-4" points="1084.6 0.1 1092.76 7.41 1092.86 61.81 1041.68 94.28 1039.21 0.16 1084.6 0.1"/><polygon class="cls-2" points="1093.1 107.14 1041.68 94.28 1092.86 61.81 1093.1 107.14"/><polygon class="cls-5" points="1092.86 205.66 1084.42 212.43 1041.68 94.28 1093.1 107.14 1092.86 205.66"/><polygon class="cls-4" points="1092.73 325 1007.62 300 1084.42 212.43 1092.76 227.03 1092.73 325"/><polygon class="cls-1" points="975.48 366.61 1007.62 300 1092.73 325 1092.93 347.11 975.48 366.61"/><polygon class="cls-6" points="789.79 268.23 859.36 357.64 825.46 449.64 789.79 268.23"/><polygon class="cls-4" points="733.92 338.1 789.79 268.23 825.46 449.64 733.92 338.1"/><polygon class="cls-1" points="859.36 357.64 883.37 304.42 789.79 268.23 859.36 357.64"/><polygon class="cls-2" points="683.37 158.46 733.92 338.1 655.73 250.21 683.37 158.46"/><polygon class="cls-1" points="789.79 268.23 683.37 158.46 733.92 338.1 789.79 268.23"/><polygon class="cls-3" points="789.79 268.23 859.25 197.11 683.37 158.46 789.79 268.23"/><polygon class="cls-5" points="883.37 304.42 859.25 197.11 789.79 268.23 883.37 304.42"/><polygon class="cls-1" points="788.96 111.02 683.37 158.46 859.25 197.11 788.96 111.02"/><polygon class="cls-5" points="755.64 31.5 683.37 158.46 788.96 111.02 755.64 31.5"/><polygon class="cls-4" points="908.61 21.05 755.64 31.5 788.96 111.02 908.61 21.05"/><polygon class="cls-2" points="892.94 126.82 908.61 21.05 788.96 111.02 892.94 126.82"/><polygon class="cls-5" points="859.25 197.11 892.94 126.82 788.96 111.02 859.25 197.11"/><polygon class="cls-4" points="945.02 204.28 892.94 126.82 859.25 197.11 945.02 204.28"/><polygon class="cls-6" points="883.37 304.42 945.02 204.28 859.25 197.11 883.37 304.42"/><polygon class="cls-4" points="1007.62 300 945.02 204.28 883.37 304.42 1007.62 300"/><polygon class="cls-6" points="975.48 366.61 1007.62 300 883.37 304.42 975.48 366.61"/><polygon class="cls-2" points="859.36 357.64 975.48 366.61 883.37 304.42 859.36 357.64"/><polygon class="cls-5" points="945.02 204.28 1084.42 212.43 1007.62 300 945.02 204.28"/><polygon class="cls-3" points="1041.68 94.28 945.02 204.28 1084.42 212.43 1041.68 94.28"/><polygon class="cls-1" points="892.94 126.82 945.02 204.28 1041.68 94.28 892.94 126.82"/><polygon class="cls-6" points="908.61 21.05 1041.68 94.28 892.94 126.82 908.61 21.05"/><polygon class="cls-6" points="1092.76 227.03 1084.42 212.43 1092.86 205.66 1092.76 227.03"/><polygon class="cls-1" points="1092.76 8.41 1084.6 1.1 1092.86 1.1 1092.76 8.41"/></svg>